<svg width="641" height="192" viewBox="0 0 641 192" xmlns="http://www.w3.org/2000/svg"><title>pepsi</title><g fill-rule="nonzero" fill="none"><g fill="#004A97"><path d="M409.037 95.0583c0-.9418-.188-2.2602-.376-3.767-.376-2.637-.9399-5.0855-1.6918-7.534-5.8273-18.6466-21.6173-30.701-40.227-30.701-1.8797 0-3.7595.1884-5.6393.3767-23.685 3.0136-39.851 24.6738-36.6554 48.9709 2.8197 22.2252 20.6774 37.2932 42.2947 37.2932 1.8798 0 3.7596-.1884 5.6393-.3767 11.4666-1.5068 21.6173-6.4039 29.3244-15.633.376-.565.5639-1.1301.5639-1.8835 0-.565-.376-1.1301-.9399-1.5068-1.3158-.9418-5.8273-3.202-8.271-4.332-.7519-.3768-1.3158-.5651-1.6917-.7534-.752-.3767-1.3159-.5651-1.6918-.5651-.564 0-1.1279.3767-1.6918.9417-4.8874 5.6505-11.0906 8.6641-17.4818 9.6059-1.3159.1883-2.4437.1883-3.5716.1883-11.4666 0-23.1211-7.7223-26.5047-18.2699v-.1883l.188-.1884c.564-.3767 6.0152-2.8252 13.9103-2.8252.9398 0 2.0677 0 3.0076.1883 2.2557.1884 4.5114.565 6.9551.7534 4.5114.565 9.2109 1.1301 14.4742 1.1301 3.3836 0 6.5792-.1883 9.9628-.7534 13.1583-2.4485 18.4217-6.2155 18.4217-6.2155 1.8797-1.1301 1.8797-2.0719 1.6918-3.9553zm-14.8502-5.2738c-2.2557.7534-5.0754 1.3184-8.8349 1.6951-1.6918.1884-3.7595.3767-6.0152.3767-3.7596 0-8.083-.3767-12.0305-.565h-.188c-3.7595-.1884-7.3311-.565-10.7147-.565-2.4437 0-4.6994.1883-6.7671.3766-6.3912.7534-11.2786 2.8253-11.2786 2.8253v-.565c1.3158-12.8079 11.8425-23.7321 24.8129-25.4273 1.1278-.1883 2.4437-.1883 3.5715-.1883 12.2185 0 24.061 9.2291 27.6326 21.6602v.3767h-.188zM615.6232 58.1417c0-1.13-.94-2.0718-2.0678-2.0718h-10.9026c-1.1279 0-2.0678.9418-2.0678 2.0718v77.7884c0 1.13.94 2.0718 2.0678 2.0718h10.9026c1.1279 0 2.0678-.9417 2.0678-2.0718V58.1417zM608.292 28.3825c-5.4512 0-9.7747 4.5204-9.7747 9.9825 0 5.4622 4.5114 9.7942 9.7748 9.7942 5.4513 0 9.7748-4.5204 9.7748-9.7942 0-5.6504-4.3235-9.9825-9.7748-9.9825M463.1742 139.8854h2.0677c11.2786 0 21.6173-4.332 29.3244-12.2427 7.895-7.9107 12.2185-18.835 12.2185-30.8893 0-24.4854-18.7977-43.8854-43.0467-43.8854-19.5495 0-36.2794 12.996-41.1668 32.2077-.94 3.202-1.6918 11.6777-1.6918 19.965v61.0253c0 1.1301.9399 2.0719 2.0677 2.0719H433.85c1.1278 0 2.0677-.9418 2.0677-2.0719v-38.4233l.564.565c5.0753 5.4622 15.038 11.1127 26.6926 11.6777m.564-71.9495c15.414 0 27.6325 12.8078 27.6325 29.0058 0 16.3865-11.4666 28.8175-26.6927 28.8175-7.707 0-14.8501-2.8252-20.1135-7.7223-5.4513-5.0854-8.271-12.431-8.271-20.5301-.188-16.3864 12.2185-29.5709 27.4446-29.5709M268.6185 139.8854h2.0677c11.2786 0 21.6173-4.332 29.3244-12.2427 7.895-7.9107 12.2184-18.835 12.2184-30.8893 0-24.4854-18.9856-43.8854-43.0466-43.8854-19.5496 0-36.2795 12.996-41.1669 32.2077-.9398 3.202-1.6917 11.6777-1.6917 19.965v61.0253c0 1.1301.9398 2.0719 2.0677 2.0719h10.9026c1.1279 0 2.0678-.9418 2.0678-2.0719v-38.4233l.564.565c5.0753 5.4622 14.85 11.1127 26.6926 11.6777m.564-71.9495c15.414 0 27.6325 12.8078 27.6325 29.0058 0 16.3865-11.4666 28.8175-26.6927 28.8175-7.707 0-14.8502-2.8252-20.1135-7.7223-5.4513-5.0854-8.459-12.431-8.459-20.5301 0-16.3864 12.4065-29.5709 27.6326-29.5709M517.3114 126.3243c9.3989 8.664 19.7376 13.5611 33.084 13.5611h.3759c23.121-.1883 33.4598-12.8077 33.4598-25.2388 0-17.1398-16.166-21.8485-21.2414-22.9786-1.5038-.3767-3.1956-.565-4.8874-.9418-3.9475-.7534-8.271-1.5068-12.0305-2.6369-2.6316-.7534-11.2785-3.5786-11.2785-10.1709 0-7.1572 7.895-10.9242 15.414-10.9242 6.2033 0 11.4666 1.13 18.0458 6.2155.564.3767 1.3158.9418 2.0677.9418.752 0 1.3159-.1884 1.8798-.7534 1.8798-1.3185 5.2633-4.1437 7.519-6.404.564-.565.752-1.13.752-1.695 0-.9418-.752-1.6952-1.1279-2.072-8.8349-7.1572-17.4818-9.9824-29.5123-9.9824-17.2939 0-30.2642 11.1126-30.2642 25.9922 0 11.6777 9.5868 19.965 27.0686 23.3553l10.9026 2.0719c7.1431 1.3184 11.2786 5.0854 11.0906 10.5476-.188 5.2737-6.5791 10.5475-16.9179 10.5475-8.4589 0-15.978-3.3903-22.3692-9.0408h-.188c-.3759-.3767-.9398-.9417-1.6917-.9417-.564 0-.94.1883-1.5038.7534-.752.565-7.895 6.2155-8.647 7.1573-.376.3767-.5639.7534-.5639 1.13-.376.5651.188 1.1302.564 1.5069"/></g><path d="M163.7276 163.8058c-37.2194 37.2932-97.7478 37.2932-135.1552 0-37.2193-37.2932-37.2193-97.9417 0-135.4233 37.2194-37.2932 97.7478-37.2932 135.1552 0 37.2193 37.4816 37.2193 98.1301 0 135.4233" fill="#FFF"/><path d="M170.4947 47.7825c1.8798 5.8389 2.8197 12.0544 2.8197 18.27 0 20.53-10.1508 38.8-25.5648 50.1009-26.6927 19.7767-65.7918 19.7767-119.5531 36.7282 16.166 19.4 40.603 31.831 68.0475 31.831 48.8739 0 88.537-39.7417 88.537-88.7126 0-17.7049-5.2634-34.2796-14.2863-48.2175" fill="#004A97"/><path d="M149.2534 25.1806C134.4032 14.068 115.9815 7.4757 96.056 7.4757c-48.8739 0-88.537 39.7418-88.537 88.7126 0 19.7767 6.3913 38.0467 17.2939 52.738C84.4015 131.4096 131.5836 84.699 149.2534 25.1805" fill="#EB0029"/><path d="M631.0372 121.8039c5.0754 0 9.023 4.1437 9.023 9.0408 0 4.897-3.9476 9.0407-9.023 9.0407-5.0753 0-8.8349-3.9553-8.8349-9.0407-.188-5.0855 3.7596-9.0408 8.835-9.0408zm0 16.3864c4.1355 0 7.3311-3.3903 7.3311-7.534s-3.1956-7.534-7.331-7.534c-4.1355 0-7.3311 3.3903-7.3311 7.534-.188 4.332 3.1956 7.534 7.331 7.534zm1.3159-6.0272c1.3158-.3767 1.8797-1.5068 1.8797-2.8252 0-1.5068-.9398-3.0136-3.0076-3.0136h-3.3836v9.0407h1.6918v-3.2019h.564l2.2557 3.202h2.0677l-2.0677-3.202zm-.9399-4.1437c.7519 0 1.1279.565 1.1279 1.3185 0 .565-.376 1.13-1.3159 1.13h-1.5038v-2.4485h1.6918z" fill="#004A97"/></g></svg>